<svg xmlns="http://www.w3.org/2000/svg" xmlns:xlink="http://www.w3.org/1999/xlink" width="810" height="541.04"><rect width="810" height="541.04" rx="0" ry="0" class="a"/><svg height="521.04" viewBox="0 0 79 52.104" width="790" x="10" xmlns="http://www.w3.org/2000/svg" xmlns:xlink="http://www.w3.org/1999/xlink" y="10"><style>.a{fill:#282d35}.d{fill:#b9c0cb;white-space:pre}.e{fill:#73bef3}.f,.g{white-space:pre}.g{fill:#73bef3}</style><g font-family="Monaco,Consolas,Menlo,'Bitstream Vera Sans Mono','Powerline Symbols',monospace" font-size="1.67"><defs><symbol id="a"><path fill="transparent" d="M0 0h79v24H0z"/></symbol></defs><path class="a" d="M0 0h79v52.104H0z"/><svg width="79"><svg><use xlink:href="#a"/><text y="1.67" class="d">Basename▲</text><text x="34.068" y="1.67" class="d">Size</text><text x="40.08" y="1.67" class="d">Modified</text><text x="58.116" y="1.67" class="d">Path</text><text x="2.004" y="6.012" class="d">apt-</text><path class="e" d="M6.012 4.342h8v2.171h-8z"/><text x="6.012" y="6.012" class="f">patterns</text><text x="14.028" y="6.012" class="d">.7.gz</text><text x="30.06" y="6.012" class="d">2.61</text><text x="35.07" y="6.012" class="d">KiB</text><text x="40.08" y="6.012" class="d">2020-05-13</text><text x="51.102" y="6.012" class="d">05:02</text><text x="58.116" y="6.012" class="d">/usr/share/man/man7</text><text y="8.183" class="g">&gt;</text><text x="2.004" y="8.183" class="g">argument-</text><path class="e" d="M11.022 6.513h8v2.171h-8z"/><text x="11.022" y="8.183" class="f">patterns</text><text x="19.038" y="8.183" class="g">.rs</text><text x="33.066" y="8.183" class="g">415</text><text x="37.074" y="8.183" class="g">B</text><text x="40.08" y="8.183" class="g">2020-06-27</text><text x="51.102" y="8.183" class="g">15:05</text><text x="58.116" y="8.183" class="g">/home/mosm/Document</text><text x="2.004" y="10.354" class="d">associated-const-match-</text><path class="e" d="M25.05 8.684h1v2.171h-1z"/><text x="25.05" y="10.354" class="f">p</text><text x="30.06" y="10.354" class="d">1.19</text><text x="35.07" y="10.354" class="d">KiB</text><text x="40.08" y="10.354" class="d">2020-06-27</text><text x="51.102" y="10.354" class="d">15:05</text><text x="58.116" y="10.354" class="d">/home/mosm/Document</text><text x="2.004" y="12.525" class="d">associated-const-range-m</text><text x="33.066" y="12.525" class="d">779</text><text x="37.074" y="12.525" class="d">B</text><text x="40.08" y="12.525" class="d">2020-06-27</text><text x="51.102" y="12.525" class="d">15:05</text><text x="58.116" y="12.525" class="d">/home/mosm/Document</text><text x="2.004" y="14.696" class="d">bindings-after-at-or-</text><path class="e" d="M23.046 13.026h3v2.171h-3z"/><text x="23.046" y="14.696" class="f">pat</text><text x="30.06" y="14.696" class="d">4.49</text><text x="35.07" y="14.696" class="d">KiB</text><text x="40.08" y="14.696" class="d">2020-06-27</text><text x="51.102" y="14.696" class="d">15:05</text><text x="58.116" y="14.696" class="d">/home/mosm/Document</text><text x="2.004" y="16.867" class="d">bindings-after-at-or-</text><path class="e" d="M23.046 15.197h3v2.171h-3z"/><text x="23.046" y="16.867" class="f">pat</text><text x="30.06" y="16.867" class="d">7.85</text><text x="35.07" y="16.867" class="d">KiB</text><text x="40.08" y="16.867" class="d">2020-06-27</text><text x="51.102" y="16.867" class="d">15:05</text><text x="58.116" y="16.867" class="d">/home/mosm/Document</text><text x="2.004" y="19.038" class="d">borrowck-closures-slice-</text><text x="30.06" y="19.038" class="d">2.10</text><text x="35.07" y="19.038" class="d">KiB</text><text x="40.08" y="19.038" class="d">2020-06-27</text><text x="51.102" y="19.038" class="d">15:05</text><text x="58.116" y="19.038" class="d">/home/mosm/Document</text><text x="2.004" y="21.209" class="d">borrowck-closures-slice-</text><text x="30.06" y="21.209" class="d">1.66</text><text x="35.07" y="21.209" class="d">KiB</text><text x="40.08" y="21.209" class="d">2020-06-27</text><text x="51.102" y="21.209" class="d">15:05</text><text x="58.116" y="21.209" class="d">/home/mosm/Document</text><text x="2.004" y="23.38" class="d">borrowck-closures-slice-</text><text x="30.06" y="23.38" class="d">4.19</text><text x="35.07" y="23.38" class="d">KiB</text><text x="40.08" y="23.38" class="d">2020-06-27</text><text x="51.102" y="23.38" class="d">15:05</text><text x="58.116" y="23.38" class="d">/home/mosm/Document</text><text x="2.004" y="25.551" class="d">box-</text><path class="e" d="M6.012 23.881h8v2.171h-8z"/><text x="6.012" y="25.551" class="f">patterns</text><text x="14.028" y="25.551" class="d">.html</text><text x="30.06" y="25.551" class="d">72.3</text><text x="35.07" y="25.551" class="d">KiB</text><text x="40.08" y="25.551" class="d">2020-06-23</text><text x="51.102" y="25.551" class="d">12:55</text><text x="58.116" y="25.551" class="d">/home/mosm/.rustup/</text><text x="2.004" y="27.722" class="d">box-</text><path class="e" d="M6.012 26.052h8v2.171h-8z"/><text x="6.012" y="27.722" class="f">patterns</text><text x="14.028" y="27.722" class="d">.html</text><text x="30.06" y="27.722" class="d">63.9</text><text x="35.07" y="27.722" class="d">KiB</text><text x="40.08" y="27.722" class="d">2020-06-10</text><text x="51.102" y="27.722" class="d">13:41</text><text x="58.116" y="27.722" class="d">/home/mosm/.rustup/</text><text x="2.004" y="29.893" class="d">box-</text><path class="e" d="M6.012 28.223h8v2.171h-8z"/><text x="6.012" y="29.893" class="f">patterns</text><text x="14.028" y="29.893" class="d">.md</text><text x="33.066" y="29.893" class="d">643</text><text x="37.074" y="29.893" class="d">B</text><text x="40.08" y="29.893" class="d">2020-06-27</text><text x="51.102" y="29.893" class="d">15:05</text><text x="58.116" y="29.893" class="d">/home/mosm/Document</text><text x="2.004" y="32.064" class="d">box-</text><path class="e" d="M6.012 30.394h8v2.171h-8z"/><text x="6.012" y="32.064" class="f">patterns</text><text x="14.028" y="32.064" class="d">.rs</text><text x="33.066" y="32.064" class="d">792</text><text x="37.074" y="32.064" class="d">B</text><text x="40.08" y="32.064" class="d">2020-06-27</text><text x="51.102" y="32.064" class="d">15:05</text><text x="58.116" y="32.064" class="d">/home/mosm/Document</text><text x="2.004" y="34.235" class="d">box-</text><path class="e" d="M6.012 32.565h8v2.171h-8z"/><text x="6.012" y="34.235" class="f">patterns</text><text x="14.028" y="34.235" class="d">.rs</text><text x="33.066" y="34.235" class="d">818</text><text x="37.074" y="34.235" class="d">B</text><text x="40.08" y="34.235" class="d">2020-06-27</text><text x="51.102" y="34.235" class="d">15:05</text><text x="58.116" y="34.235" class="d">/home/mosm/Document</text><text x="2.004" y="36.406" class="d">braille-</text><path class="e" d="M10.02 34.736h8v2.171h-8z"/><text x="10.02" y="36.406" class="f">patterns</text><text x="18.036" y="36.406" class="d">.cti</text><text x="30.06" y="36.406" class="d">25.8</text><text x="35.07" y="36.406" class="d">KiB</text><text x="40.08" y="36.406" class="d">2020-01-20</text><text x="51.102" y="36.406" class="d">03:21</text><text x="58.116" y="36.406" class="d">/usr/share/liblouis</text><text x="2.004" y="38.577" class="d">ch17-03-oo-design-</text><path class="e" d="M20.04 36.907h6v2.171h-6z"/><text x="20.04" y="38.577" class="f">patter</text><text x="30.06" y="38.577" class="d">26.3</text><text x="35.07" y="38.577" class="d">KiB</text><text x="40.08" y="38.577" class="d">2020-06-23</text><text x="51.102" y="38.577" class="d">12:55</text><text x="58.116" y="38.577" class="d">/home/mosm/.rustup/</text><text x="2.004" y="40.748" class="d">ch17-03-oo-design-</text><path class="e" d="M20.04 39.078h6v2.171h-6z"/><text x="20.04" y="40.748" class="f">patter</text><text x="30.06" y="40.748" class="d">73.6</text><text x="35.07" y="40.748" class="d">KiB</text><text x="40.08" y="40.748" class="d">2020-06-23</text><text x="51.102" y="40.748" class="d">12:55</text><text x="58.116" y="40.748" class="d">/home/mosm/.rustup/</text><text x="2.004" y="42.919" class="d">ch17-03-oo-design-</text><path class="e" d="M20.04 41.249h6v2.171h-6z"/><text x="20.04" y="42.919" class="f">patter</text><text x="30.06" y="42.919" class="d">26.0</text><text x="35.07" y="42.919" class="d">KiB</text><text x="40.08" y="42.919" class="d">2020-06-23</text><text x="51.102" y="42.919" class="d">12:55</text><text x="58.116" y="42.919" class="d">/home/mosm/.rustup/</text><text x="2.004" y="45.09" class="d">ch17-03-oo-design-</text><path class="e" d="M20.04 43.42h6v2.171h-6z"/><text x="20.04" y="45.09" class="f">patter</text><text x="30.06" y="45.09" class="d">25.1</text><text x="35.07" y="45.09" class="d">KiB</text><text x="40.08" y="45.09" class="d">2020-06-10</text><text x="51.102" y="45.09" class="d">13:41</text><text x="58.116" y="45.09" class="d">/home/mosm/.rustup/</text><text y="47.261" class="d">Ready</text><text x="67.134" y="47.261" class="d">199</text><text x="71.142" y="47.261" class="d">/</text><text x="73.146" y="47.261" class="d">824950</text><text y="49.432" class="d">/home/mosm/Documents/rust/src/test/ui/async-await/argument-patterns.rs</text><text y="51.603" style="white-space:pre" fill="#73bef3" font-weight="700">&gt;</text><text x="2.004" y="51.603" class="d">patterns</text><path fill="#fff" d="M10.02 49.933h1v2.171h-1z"/><text x="10.02" y="51.603" class="f"></text></svg></svg></g></svg></svg>